<svg width="58" height="58" viewBox="0 0 58 58" fill="none" xmlns="http://www.w3.org/2000/svg">
<g clip-path="url(#clip0_2112_786)">
<path d="M7.45816 25.8199C9.20819 13.9274 20.2676 5.70534 32.16 7.45536C36.2175 8.0524 40.0237 9.78369 43.1402 12.4498L40.3347 15.2552C39.3944 16.1958 39.3946 17.7206 40.3352 18.6609C40.7867 19.1122 41.3989 19.3659 42.0373 19.366H53.0812C54.4112 19.366 55.4893 18.2878 55.4893 16.9579V5.91395C55.489 4.58396 54.4106 3.50604 53.0806 3.50626C52.4423 3.50637 51.83 3.76002 51.3786 4.21133L48.2478 7.34192C36.3093 -3.30014 18.004 -2.24919 7.36199 9.68932C3.59181 13.9187 1.14518 19.1612 0.325196 24.7675C0.00189922 26.755 1.35096 28.6283 3.33838 28.9516C3.51742 28.9807 3.69826 28.9964 3.87966 28.9986C5.69798 28.979 7.22427 27.6232 7.45816 25.8199Z" fill="#708090"/>
<path d="M54.1185 28.998C52.3002 29.0177 50.7739 30.3735 50.54 32.1768C48.79 44.0693 37.7306 52.2913 25.8382 50.5414C21.7807 49.9444 17.9745 48.2131 14.858 45.547L17.6635 42.7415C18.6038 41.801 18.6036 40.2762 17.6629 39.3359C17.2115 38.8845 16.5992 38.6309 15.9609 38.6308H4.9172C3.58721 38.6308 2.50906 39.7089 2.50906 41.0389V52.0828C2.5094 53.4128 3.58777 54.4907 4.91776 54.4905C5.55612 54.4904 6.16839 54.2367 6.61981 53.7854L9.7504 50.6548C21.6861 61.298 39.99 60.2503 50.6333 48.3145C54.4055 44.0843 56.8532 38.84 57.673 33.2317C57.9976 31.2444 56.6498 29.3702 54.6626 29.0456C54.4827 29.0161 54.3008 29.0002 54.1185 28.998Z" fill="#708090"/>
</g>
<defs>
<clipPath id="clip0_2112_786">
<rect width="58" height="58" fill="white"/>
</clipPath>
</defs>
</svg>
