<svg width="58" height="58" viewBox="0 0 58 58" fill="none" xmlns="http://www.w3.org/2000/svg">
<g clip-path="url(#clip0_2112_790)">
<path d="M18.754 16.0741L25.4745 9.35123L25.5252 42.2938C25.5252 44.2957 27.1481 45.9187 29.1501 45.9187C31.152 45.9187 32.7749 44.2957 32.7749 42.2938L32.7242 9.39235L39.406 16.0742C40.7968 17.5141 43.0915 17.554 44.5315 16.1632C45.9715 14.7724 46.0114 12.4777 44.6206 11.0377C44.5913 11.0074 44.5616 10.9778 44.5315 10.9487L36.7695 3.18661C32.5227 -1.06023 25.6374 -1.06023 21.3905 3.1865L21.3904 3.18661L13.6285 10.9485C12.2377 12.3885 12.2775 14.6833 13.7175 16.0741C15.1223 17.4308 17.3493 17.4308 18.754 16.0741Z" fill="#708090"/>
<path d="M54.3739 35.0422C52.372 35.0422 50.7491 36.6651 50.7491 38.6671V49.7615C50.7477 50.3068 50.3061 50.7485 49.7608 50.7498H8.23931C7.69399 50.7484 7.25222 50.3068 7.25097 49.7615V38.6671C7.25097 36.6651 5.62806 35.0422 3.62613 35.0422C1.62419 35.0422 0.00128174 36.6651 0.00128174 38.6671V49.7615C0.00660573 54.309 3.69183 57.9941 8.23931 57.9995H49.7607C54.3082 57.9941 57.9934 54.3089 57.9987 49.7615V38.6671C57.9988 36.6651 56.3759 35.0422 54.3739 35.0422Z" fill="#708090"/>
</g>
<defs>
<clipPath id="clip0_2112_790">
<rect width="58" height="58" fill="white"/>
</clipPath>
</defs>
</svg>
