<svg width="58" height="58" viewBox="0 0 58 58" fill="none" xmlns="http://www.w3.org/2000/svg">
<g clip-path="url(#clip0_2112_802)">
<path d="M21.3895 42.775C25.6364 47.022 32.5221 47.022 36.7691 42.7751L36.7693 42.775L44.5316 35.0126C45.9717 33.6218 46.0115 31.3269 44.6207 29.8869C43.2298 28.4468 40.9349 28.407 39.4949 29.7978C39.4647 29.827 39.435 29.8567 39.4059 29.8869L32.6803 36.61L32.6246 3.625C32.6246 1.62298 31.0017 0 28.9996 0C26.9976 0 25.3746 1.62298 25.3746 3.625L25.4254 36.5569L18.753 29.8845C17.313 28.4936 15.0181 28.5335 13.6273 29.9735C12.2705 31.3783 12.2705 33.6054 13.6273 35.0102L21.3895 42.775Z" fill="#708090"/>
<path d="M54.375 35.0417C52.373 35.0417 50.75 36.6647 50.75 38.6667V49.7616C50.7486 50.307 50.307 50.7488 49.7616 50.75H8.23838C7.69304 50.7486 7.25125 50.307 7.25 49.7616V38.6667C7.25 36.6647 5.62702 35.0417 3.625 35.0417C1.62298 35.0417 0 36.6647 0 38.6667V49.7616C0.00532422 54.3094 3.6907 57.9948 8.23838 58.0001H49.7615C54.3093 57.9948 57.9946 54.3094 57.9999 49.7617V38.6669C58 36.6647 56.377 35.0417 54.375 35.0417Z" fill="#708090"/>
</g>
<defs>
<clipPath id="clip0_2112_802">
<rect width="58" height="58" fill="white"/>
</clipPath>
</defs>
</svg>
