<svg width="59" height="59" viewBox="0 0 59 59" fill="none" xmlns="http://www.w3.org/2000/svg">
<path d="M56.5417 11.0625C56.5417 9.02596 54.8907 7.375 52.8542 7.375H43.5715C42.0181 2.96809 37.8601 0.0149805 33.1875 0H25.8125C21.1398 0.0149805 16.9818 2.96809 15.4285 7.375H6.14575C4.10921 7.375 2.45825 9.02596 2.45825 11.0625C2.45825 13.099 4.10921 14.75 6.14575 14.75H7.37496V45.4792C7.37496 52.9465 13.4284 59 20.8958 59H38.104C45.5715 59 51.625 52.9465 51.625 45.4792V14.75H52.8542C54.8907 14.75 56.5417 13.099 56.5417 11.0625ZM44.25 45.4792C44.25 48.8734 41.4984 51.625 38.1042 51.625H20.8958C17.5015 51.625 14.75 48.8734 14.75 45.4792V14.75H44.25V45.4792Z" fill="#EE5F62"/>
<path d="M23.3542 44.25C25.3908 44.25 27.0417 42.599 27.0417 40.5625V25.8125C27.0417 23.776 25.3908 22.125 23.3542 22.125C21.3177 22.125 19.6667 23.776 19.6667 25.8125V40.5625C19.6667 42.599 21.3177 44.25 23.3542 44.25Z" fill="#EE5F62"/>
<path d="M35.6458 44.25C37.6823 44.25 39.3333 42.599 39.3333 40.5625V25.8125C39.3333 23.776 37.6823 22.125 35.6458 22.125C33.6092 22.125 31.9583 23.776 31.9583 25.8125V40.5625C31.9583 42.599 33.6092 44.25 35.6458 44.25Z" fill="#EE5F62"/>
</svg>
