<svg width="84" height="84" viewBox="0 0 84 84" fill="none" xmlns="http://www.w3.org/2000/svg">
<g clip-path="url(#clip0_2027_847)">
<path d="M55.9997 28.0005C55.3433 27.3443 54.4532 26.9757 53.5252 26.9757C52.5971 26.9757 51.707 27.3443 51.0507 28.0005L41.9997 37.0515L32.9487 28.0005C32.2886 27.3629 31.4045 27.0101 30.4868 27.0181C29.5691 27.0261 28.6913 27.3942 28.0423 28.0431C27.3934 28.692 27.0253 29.5699 27.0173 30.4876C27.0094 31.4052 27.3621 32.2894 27.9997 32.9495L37.0507 42.0005L27.9997 51.0515C27.3621 51.7116 27.0094 52.5957 27.0173 53.5134C27.0253 54.431 27.3934 55.3089 28.0423 55.9578C28.6913 56.6068 29.5691 56.9748 30.4868 56.9828C31.4045 56.9908 32.2886 56.638 32.9487 56.0005L41.9997 46.9495L51.0507 56.0005C51.7108 56.638 52.5949 56.9908 53.5126 56.9828C54.4302 56.9748 55.3081 56.6068 55.957 55.9578C56.6059 55.3089 56.974 54.431 56.982 53.5134C56.99 52.5957 56.6372 51.7116 55.9997 51.0515L46.9487 42.0005L55.9997 32.9495C56.6558 32.2931 57.0244 31.403 57.0244 30.475C57.0244 29.5469 56.6558 28.6568 55.9997 28.0005Z" fill="#EE5F62"/>
<path d="M42 0C33.6932 0 25.5729 2.46326 18.6661 7.07828C11.7592 11.6933 6.37596 18.2528 3.19708 25.9273C0.018198 33.6018 -0.813542 42.0466 0.807037 50.1938C2.42762 58.341 6.42773 65.8247 12.3015 71.6985C18.1753 77.5723 25.659 81.5724 33.8062 83.193C41.9534 84.8136 50.3982 83.9818 58.0727 80.8029C65.7472 77.6241 72.3067 72.2408 76.9217 65.334C81.5368 58.4271 84 50.3068 84 42C83.988 30.8646 79.5591 20.1887 71.6852 12.3148C63.8113 4.4409 53.1354 0.0120438 42 0V0ZM42 77C35.0777 77 28.3108 74.9473 22.5551 71.1014C16.7993 67.2556 12.3133 61.7893 9.66424 55.3939C7.01517 48.9985 6.32205 41.9612 7.67253 35.1718C9.02302 28.3825 12.3564 22.1461 17.2513 17.2513C22.1461 12.3564 28.3825 9.023 35.1719 7.67252C41.9612 6.32203 48.9985 7.01515 55.3939 9.66422C61.7894 12.3133 67.2556 16.7993 71.1015 22.555C74.9473 28.3108 77 35.0777 77 42C76.9898 51.2795 73.2991 60.1759 66.7375 66.7375C60.1759 73.2991 51.2795 76.9898 42 77Z" fill="#EE5F62"/>
</g>
<defs>
<clipPath id="clip0_2027_847">
<rect width="84" height="84" fill="white"/>
</clipPath>
</defs>
</svg>
