<svg width="58" height="58" viewBox="0 0 58 58" fill="none" xmlns="http://www.w3.org/2000/svg">
<g clip-path="url(#clip0_2112_776)">
<path d="M55.8763 21.9166L37.5459 3.58378C35.2772 1.32175 32.2042 0.0515137 29.0005 0.0515137C25.7968 0.0515137 22.7238 1.32175 20.4552 3.58378L2.12477 21.9166C1.44913 22.5879 0.913461 23.3867 0.548817 24.2665C0.184172 25.1464 -0.00219519 26.0899 0.000517473 27.0424V50.7668C0.000517473 52.6896 0.764355 54.5337 2.12399 55.8933C3.48363 57.2529 5.3277 58.0168 7.25052 58.0168H50.7505C52.6733 58.0168 54.5174 57.2529 55.877 55.8933C57.2367 54.5337 58.0005 52.6896 58.0005 50.7668V27.0424C58.0032 26.0899 57.8169 25.1464 57.4522 24.2665C57.0876 23.3867 56.5519 22.5879 55.8763 21.9166V21.9166ZM36.2505 53.1834H21.7505V43.6763C21.7505 41.7535 22.5144 39.9094 23.874 38.5498C25.2336 37.1901 27.0777 36.4263 29.0005 36.4263C30.9233 36.4263 32.7674 37.1901 34.127 38.5498C35.4867 39.9094 36.2505 41.7535 36.2505 43.6763V53.1834ZM53.1672 50.7668C53.1672 51.4077 52.9126 52.0224 52.4594 52.4756C52.0062 52.9288 51.3915 53.1834 50.7505 53.1834H41.0839V43.6763C41.0839 40.4716 39.8108 37.3981 37.5447 35.1321C35.2787 32.866 32.2052 31.5929 29.0005 31.5929C25.7958 31.5929 22.7224 32.866 20.4563 35.1321C18.1902 37.3981 16.9172 40.4716 16.9172 43.6763V53.1834H7.25052C6.60958 53.1834 5.99489 52.9288 5.54168 52.4756C5.08846 52.0224 4.83385 51.4077 4.83385 50.7668V27.0424C4.83609 26.4019 5.09048 25.7881 5.54194 25.3338L23.8724 7.00819C25.2346 5.65227 27.0785 4.89105 29.0005 4.89105C30.9226 4.89105 32.7664 5.65227 34.1287 7.00819L52.4591 25.341C52.9088 25.7935 53.163 26.4044 53.1672 27.0424V50.7668Z" fill="#708090"/>
</g>
<defs>
<clipPath id="clip0_2112_776">
<rect width="58" height="58" fill="white"/>
</clipPath>
</defs>
</svg>
