<svg width="58" height="58" viewBox="0 0 58 58" fill="none" xmlns="http://www.w3.org/2000/svg">
<g clip-path="url(#clip0_2112_751)">
<path d="M53.304 12.6388L35.4835 4.14904C31.5608 1.80593 26.6783 1.76435 22.7162 4.04029L4.69521 12.6388C4.62758 12.6727 4.55746 12.7089 4.49221 12.7475C0.215617 15.1928 -1.26905 20.642 1.17624 24.9186C2.00512 26.3684 3.22437 27.5562 4.69521 28.3472L9.66633 30.7155V42.5572C9.66928 47.8523 13.1147 52.5303 18.1706 54.104C21.689 55.1219 25.3372 55.6202 28.9997 55.583C32.6616 55.624 36.3099 55.1299 39.8288 54.1161C44.8847 52.5426 48.3301 47.8644 48.3331 42.5693V30.7107L53.1664 28.4003V48.3329C53.1664 49.6676 54.2484 50.7495 55.5831 50.7495C56.9178 50.7495 57.9997 49.6676 57.9997 48.3329V19.3329C58.0158 16.4951 55.7751 13.8736 53.304 12.6388ZM43.4996 42.5693C43.5008 45.7365 41.4459 48.5381 38.4246 49.4882C35.3608 50.3636 32.1858 50.7885 28.9996 50.7497C25.8133 50.7885 22.6384 50.3636 19.5746 49.4882C16.5533 48.538 14.4983 45.7365 14.4996 42.5693V33.0186L22.5157 36.837C24.4936 38.0115 26.7525 38.6287 29.0528 38.6229C31.2423 38.6384 33.395 38.0588 35.2806 36.9458L43.4996 33.0185V42.5693ZM51.233 23.985L33.0065 32.685C30.4651 34.1648 27.3151 34.1229 24.814 32.5763L6.98134 24.0938C4.99359 23.0219 4.25115 20.5416 5.32302 18.554C5.68552 17.8818 6.22904 17.3246 6.89196 16.9453L25.0048 8.29366C27.547 6.81715 30.6953 6.85895 33.1973 8.40241L51.0178 16.8922C52.3284 17.6199 53.1483 18.9941 53.1662 20.493C53.1686 21.9129 52.4375 23.2333 51.233 23.985Z" fill="#708090"/>
</g>
<defs>
<clipPath id="clip0_2112_751">
<rect width="58" height="58" fill="white"/>
</clipPath>
</defs>
</svg>
