<svg width="58" height="58" viewBox="0 0 58 58" fill="none" xmlns="http://www.w3.org/2000/svg">
<g clip-path="url(#clip0_2112_760)">
<path d="M29 28.9998C31.8678 28.9998 34.6713 28.1494 37.0558 26.5561C39.4403 24.9628 41.2988 22.6982 42.3963 20.0487C43.4937 17.3991 43.7809 14.4837 43.2214 11.671C42.6619 8.85823 41.2809 6.27458 39.2531 4.24671C37.2252 2.21885 34.6415 0.837862 31.8288 0.278376C29.0161 -0.28111 26.1006 0.00603851 23.4511 1.10351C20.8016 2.20098 18.537 4.05948 16.9437 6.44399C15.3504 8.82851 14.5 11.6319 14.5 14.4998C14.5038 18.3442 16.0327 22.0301 18.7512 24.7486C21.4696 27.467 25.1555 28.9959 29 28.9998ZM29 4.8331C30.9119 4.8331 32.7808 5.40004 34.3705 6.46222C35.9602 7.52441 37.1992 9.03414 37.9308 10.8005C38.6625 12.5668 38.8539 14.5105 38.4809 16.3856C38.1079 18.2608 37.1873 19.9832 35.8354 21.3351C34.4835 22.687 32.761 23.6077 30.8859 23.9807C29.0107 24.3537 27.0671 24.1622 25.3007 23.4306C23.5344 22.699 22.0246 21.4599 20.9625 19.8703C19.9003 18.2806 19.3333 16.4116 19.3333 14.4998C19.3333 11.936 20.3518 9.47725 22.1646 7.6644C23.9775 5.85155 26.4362 4.8331 29 4.8331V4.8331Z" fill="#708090"/>
<path d="M29 33.8347C23.2335 33.8411 17.705 36.1347 13.6275 40.2122C9.54995 44.2897 7.25638 49.8182 7.24998 55.5847C7.24998 56.2257 7.5046 56.8403 7.95781 57.2936C8.41102 57.7468 9.02571 58.0014 9.66665 58.0014C10.3076 58.0014 10.9223 57.7468 11.3755 57.2936C11.8287 56.8403 12.0833 56.2257 12.0833 55.5847C12.0833 51.0981 13.8656 46.7953 17.0381 43.6228C20.2106 40.4503 24.5134 38.668 29 38.668C33.4866 38.668 37.7894 40.4503 40.9619 43.6228C44.1344 46.7953 45.9167 51.0981 45.9167 55.5847C45.9167 56.2257 46.1713 56.8403 46.6245 57.2936C47.0777 57.7468 47.6924 58.0014 48.3333 58.0014C48.9743 58.0014 49.5889 57.7468 50.0422 57.2936C50.4954 56.8403 50.75 56.2257 50.75 55.5847C50.7436 49.8182 48.45 44.2897 44.3725 40.2122C40.295 36.1347 34.7665 33.8411 29 33.8347V33.8347Z" fill="#708090"/>
</g>
<defs>
<clipPath id="clip0_2112_760">
<rect width="58" height="58" fill="white"/>
</clipPath>
</defs>
</svg>
