<svg width="58" height="58" viewBox="0 0 58 58" fill="none" xmlns="http://www.w3.org/2000/svg">
<g clip-path="url(#clip0_2112_757)">
<path d="M42.2916 4.63159C39.5704 4.67392 36.9084 5.43357 34.5746 6.83383C32.2409 8.23409 30.3179 10.2254 29 12.6066C27.682 10.2254 25.7591 8.23409 23.4253 6.83383C21.0915 5.43357 18.4296 4.67392 15.7083 4.63159C11.3702 4.82007 7.2831 6.71779 4.33978 9.91015C1.39647 13.1025 -0.163758 17.33 -2.70462e-05 21.6691C-2.70462e-05 32.6577 11.5661 44.6588 21.2666 52.7958C23.4325 54.6158 26.1709 55.6137 29 55.6137C31.829 55.6137 34.5674 54.6158 36.7333 52.7958C46.4338 44.6588 58 32.6577 58 21.6691C58.1637 17.33 56.6035 13.1025 53.6602 9.91015C50.7169 6.71779 46.6297 4.82007 42.2916 4.63159ZM33.6279 49.0983C32.3325 50.1891 30.6935 50.7873 29 50.7873C27.3065 50.7873 25.6674 50.1891 24.3721 49.0983C11.9552 38.68 4.83331 28.6847 4.83331 21.6691C4.6681 18.6113 5.71869 15.6123 7.75593 13.326C9.79318 11.0398 12.6518 9.65186 15.7083 9.46493C18.7648 9.65186 21.6234 11.0398 23.6607 13.326C25.6979 15.6123 26.7485 18.6113 26.5833 21.6691C26.5833 22.31 26.8379 22.9247 27.2911 23.3779C27.7443 23.8311 28.359 24.0858 29 24.0858C29.6409 24.0858 30.2556 23.8311 30.7088 23.3779C31.162 22.9247 31.4166 22.31 31.4166 21.6691C31.2514 18.6113 32.302 15.6123 34.3393 13.326C36.3765 11.0398 39.2351 9.65186 42.2916 9.46493C45.3482 9.65186 48.2068 11.0398 50.244 13.326C52.2813 15.6123 53.3318 18.6113 53.1666 21.6691C53.1666 28.6847 46.0447 38.68 33.6279 49.0886V49.0983Z" fill="#708090"/>
</g>
<defs>
<clipPath id="clip0_2112_757">
<rect width="58" height="58" fill="white"/>
</clipPath>
</defs>
</svg>
