<svg width="58" height="58" viewBox="0 0 58 58" fill="none" xmlns="http://www.w3.org/2000/svg">
<path d="M6.69416 24.1666C5.65499 24.1666 4.83333 23.3449 4.83333 22.3058V16.7233C4.83333 10.1741 10.1742 4.83325 16.7233 4.83325H22.3058C23.345 4.83325 24.1667 5.65492 24.1667 6.69409C24.1667 7.73325 23.345 8.55492 22.3058 8.55492H16.7233C12.2042 8.55492 8.55499 12.2283 8.55499 16.7233V22.3058C8.55499 23.3449 7.70916 24.1666 6.69416 24.1666Z" fill="#708090"/>
<path d="M51.3058 24.1666C50.2908 24.1666 49.445 23.3449 49.445 22.3058V16.7233C49.445 12.2041 45.7717 8.55492 41.2767 8.55492H35.6942C34.655 8.55492 33.8333 7.70909 33.8333 6.69409C33.8333 5.67909 34.655 4.83325 35.6942 4.83325H41.2767C47.8258 4.83325 53.1667 10.1741 53.1667 16.7233V22.3058C53.1667 23.3449 52.345 24.1666 51.3058 24.1666Z" fill="#708090"/>
<path d="M41.2767 53.1666H37.9175C36.9025 53.1666 36.0567 52.345 36.0567 51.3058C36.0567 50.2908 36.8783 49.445 37.9175 49.445H41.2767C45.7958 49.445 49.445 45.7716 49.445 41.2766V37.9416C49.445 36.9266 50.2667 36.0808 51.3058 36.0808C52.3208 36.0808 53.1667 36.9025 53.1667 37.9416V41.2766C53.1667 47.8258 47.8258 53.1666 41.2767 53.1666Z" fill="#708090"/>
<path d="M22.3058 53.1666H16.7233C10.1742 53.1666 4.83333 47.8258 4.83333 41.2766V35.6941C4.83333 34.6549 5.65499 33.8333 6.69416 33.8333C7.73333 33.8333 8.55499 34.6549 8.55499 35.6941V41.2766C8.55499 45.7958 12.2283 49.4449 16.7233 49.4449H22.3058C23.3208 49.4449 24.1667 50.2666 24.1667 51.3058C24.1667 52.3449 23.345 53.1666 22.3058 53.1666Z" fill="#708090"/>
<path d="M44.6117 27.1392H41.325H16.675H13.3883C12.3492 27.1392 11.5275 27.985 11.5275 29C11.5275 30.015 12.3492 30.8608 13.3883 30.8608H16.675H41.325H44.6117C45.6508 30.8608 46.4725 30.015 46.4725 29C46.4725 27.985 45.6508 27.1392 44.6117 27.1392Z" fill="#708090"/>
<path d="M16.675 33.6884V34.4859C16.675 38.4976 19.9133 41.7359 23.925 41.7359H34.075C38.0867 41.7359 41.325 38.4976 41.325 34.4859V33.6884C41.325 33.3984 41.1075 33.1809 40.8175 33.1809H17.1825C16.8925 33.1809 16.675 33.3984 16.675 33.6884Z" fill="#708090"/>
<path d="M16.675 24.3117V23.5142C16.675 19.5025 19.9133 16.2642 23.925 16.2642H34.075C38.0867 16.2642 41.325 19.5025 41.325 23.5142V24.3117C41.325 24.6017 41.1075 24.8192 40.8175 24.8192H17.1825C16.8925 24.8192 16.675 24.6017 16.675 24.3117Z" fill="#708090"/>
</svg>
